<?xml version="1.0" ?><!DOCTYPE svg  PUBLIC '-//W3C//DTD SVG 1.1//EN'  'http://www.w3.org/Graphics/SVG/1.1/DTD/svg11.dtd'><svg enable-background="new 0 0 512 512" height="512px" id="Layer_1" version="1.1" viewBox="0 0 512 512" width="512px" xml:space="preserve" xmlns="http://www.w3.org/2000/svg" xmlns:xlink="http://www.w3.org/1999/xlink"><g><g><path d="M512,256c0,10.863-0.678,21.578-1.99,32.087c-0.932,7.447-2.188,14.784-3.742,22.008     c-4.888,22.769-12.82,44.413-23.329,64.485c-39.797,76.017-116.671,129.563-206.615,136.618c-0.056,0-0.104,0.011-0.157,0.011     c-1.704,0.129-3.408,0.251-5.12,0.354C266.063,511.852,261.046,512,256,512c-11.739,0-23.292-0.791-34.611-2.327     C96.377,492.785,0,385.647,0,256C0,114.612,114.614,0,256,0S512,114.612,512,256z" fill="#B3E5FC"/><path d="M510.009,288.087c-0.932,7.447-2.188,14.784-3.742,22.008c-4.888,22.769-12.82,44.413-23.329,64.485     c-39.797,76.017-116.671,129.563-206.615,136.618c-0.056,0-0.104,0.011-0.157,0.011c-1.704,0.129-3.408,0.251-5.12,0.354     c-48.921-48.93-93.874-93.9-94.256-94.318c-6.768-6.09-14.038-14.318-21.988-25.331c-6.386-8.937-10.296-15.966-10.901-16.933     c-20.899-36.019-34.899-82.991-29.352-124.008c7.894-58.433,38-85.429,84.815-88.093c10.269-1.006,18.748,0.903,26.121,3.846     c-1.991-1.909-3.928-3.93-5.78-6.042c-8.527-7.521-16.459-16.867-21.393-28.113c-15.565-35.514,0.224-76.764,0.224-76.764     s24.437,9.728,42.747,30.497c3.092,2.736,6.135,5.743,9.039,9.03c3.081,2.736,6.135,5.753,9.03,9.039     c3.091,2.736,6.144,5.743,9.038,9.03c0.942,0.837,1.882,1.702,2.822,2.587c0.996-1.229,2.029-2.41,3.1-3.547     c0.195-0.215,0.4-0.427,0.615-0.642c15.313-16.189,35.914-22.891,35.914-22.891L510.009,288.087z" opacity="0.1"/><g><path d="M307.168,148.247c-7.781,15.044-21.513,24.977-32.005,30.795c-0.158,0.083-0.308,0.167-0.455,0.241      c-3.017,1.62-5.726,2.913-7.941,3.882c-0.103,0.046-0.215,0.093-0.316,0.141c-0.875,0.382-1.666,0.707-2.354,0.985      c-1.51,0.605-2.569,0.978-3.017,1.127c-0.158,0.057-0.242,0.084-0.242,0.084s-0.698-2.271-1.5-6.099      c-0.11-0.53-0.213-1.098-0.325-1.684c-0.019-0.074-0.036-0.149-0.045-0.232c-0.308-1.686-0.615-3.604-0.886-5.698      c-0.074-0.605-0.149-1.22-0.215-1.853c-0.772-7.01-1.015-15.742,0.495-24.789c0.009-0.084,0.018-0.168,0.036-0.253      c1.062-6.246,2.971-12.641,6.116-18.729c2.682-5.167,6.042-9.747,9.793-13.722c0.196-0.215,0.401-0.427,0.614-0.642      c15.314-16.189,35.915-22.891,35.915-22.891S320.974,121.595,307.168,148.247z" fill="#8DC63F"/><path d="M275.312,177.18c-0.203,0.753-0.409,1.451-0.604,2.104      c-0.969,3.276-1.694,5.139-1.694,5.139s-2.506,0.513-6.247-1.257c-0.131-0.056-0.251-0.121-0.382-0.187      c-0.958-0.493-1.591,0.41-2.289,1.313c-0.755,1.015-1.584,2.04-2.989,1.211c-0.009-0.027-0.019-0.057-0.027-0.084      c-0.782-2.112-1.489-4.72-2.067-7.698c-0.019-0.074-0.036-0.149-0.045-0.232c-0.09-0.487-0.179-1-0.266-1.523      c-0.137-0.791-0.264-1.604-0.38-2.438c-0.082-0.565-0.164-1.142-0.24-1.736c-0.074-0.605-0.149-1.22-0.215-1.853      c-0.762-7.513-0.762-16.226,0.495-24.789c0.009-0.084,0.018-0.168,0.036-0.253c1.062-6.246,2.971-12.641,6.116-18.729      c2.682-5.167,6.042-9.747,9.793-13.722c0.196-0.215,0.401-0.427,0.614-0.642C284.24,137.178,278.823,164.481,275.312,177.18z" fill="#231F20" opacity="0.2"/><path d="M255.143,107.656c15.567,35.513,4.144,76.989,4.144,76.989s-45.401-16.563-60.971-52.076      c-15.57-35.513,0.22-76.761,0.22-76.761S239.572,72.144,255.143,107.656z" fill="#8DC63F"/><path d="M409.465,250.973c-7.902-58.437-38.008-85.429-84.822-88.097c-31.102-3.029-45.898,20.586-62.638,18.962      c-16.738,1.624-31.537-21.991-62.639-18.962c-46.813,2.668-76.92,29.66-84.822,88.097      c-9.777,72.302,41.19,163.142,83.583,179.773c21.213,8.323,38.7-6.974,63.877-6.158c22.769,0.736,42.665,14.481,63.876,6.158      C368.276,414.114,419.244,323.274,409.465,250.973z" fill="#E53935"/><path d="M409.465,250.973c-4.728-34.956-17.405-58.652-36.848-72.629c4.099,10.2,7.104,21.954,8.92,35.393      c9.778,72.302-41.188,163.142-83.583,179.772c-21.211,8.324-43.185,13.662-65.953,12.926      c-25.177-0.814-40.588-4.602-61.8-12.926c-8.608-3.376-17.57-9.814-26.305-18.532c15.939,27.473,35.887,48.572,54.231,55.77      c21.213,8.323,38.7-6.974,63.877-6.158c22.769,0.736,42.665,14.481,63.876,6.158      C368.276,414.114,419.244,323.274,409.465,250.973z" opacity="0.1"/><circle cx="186.125" cy="225.938" fill="#FFFFFF" opacity="0.29" r="33.609"/></g></g></g></svg>